<?xml version="1.0" encoding="UTF-8"?>
<svg width="114px" height="48px" viewBox="0 0 114 48" version="1.1" xmlns="http://www.w3.org/2000/svg" xmlns:xlink="http://www.w3.org/1999/xlink">
    <!-- Generator: Sketch 64 (93537) - https://sketch.com -->
    <title>logo</title>
    <desc>Created with Sketch.</desc>
    <defs>
        <polygon id="path-1" points="0.157881407 0.455428571 43.6222432 0.455428571 43.6222432 21.5122286 0.157881407 21.5122286"></polygon>
        <polygon id="path-3" points="0 47.5446857 113.67003 47.5446857 113.67003 0.571542857 0 0.571542857"></polygon>
    </defs>
    <g id="로그인,회원가입" stroke="none" stroke-width="1" fill="none" fill-rule="evenodd">
        <g id="login" transform="translate(-123.000000, -112.000000)">
            <g id="logo" transform="translate(123.000000, 112.000000)">
                <g id="Group-22">
                    <g id="Group-3" transform="translate(34.944724, 0.116114)">
                        <mask id="mask-2" fill="white">
                            <use xlink:href="#path-1"></use>
                        </mask>
                        <g id="Clip-2"></g>
                        <path d="M42.8683538,7.98194286 L36.436806,7.98194286 L31.661409,3.01222857 L12.1215799,3.01222857 L7.34503719,7.98194286 L0.912343719,7.98194286 L0.912343719,7.31222857 L6.91367035,7.31222857 L11.6736,2.34251429 L32.1099618,2.34251429 L36.8910874,7.31222857 L42.8683538,7.31222857 L42.8683538,7.98194286 Z M41.6865347,10.0602286 L40.1518312,8.7328 L42.6541025,8.7328 C42.3756905,9.27337143 42.044002,9.70822857 41.6865347,10.0602286 L41.6865347,10.0602286 Z M39.6150573,11.2888 L37.1603337,8.7328 L39.0009467,8.7328 L41.1022131,10.5499429 C40.5912181,10.9162286 40.0710573,11.1459429 39.6150573,11.2888 L39.6150573,11.2888 Z M38.2642432,11.5310857 L33.4905648,11.5310857 L28.6991276,3.76308571 L31.3411779,3.76308571 L38.7620623,11.4853714 C38.4825045,11.5253714 38.294605,11.5310857 38.2642432,11.5310857 L38.2642432,11.5310857 Z M33.6572683,13.8390857 L37.1729367,13.8390857 L37.1729367,12.2830857 L33.6572683,12.2830857 L33.6572683,13.8390857 Z M33.6572683,18.4539429 L37.1729367,18.4539429 L37.1729367,14.5899429 L33.6572683,14.5899429 L33.6572683,18.4539429 Z M33.6572683,20.7619429 L37.1729367,20.7619429 L37.1729367,19.2048 L33.6572683,19.2048 L33.6572683,20.7619429 Z M27.9635698,13.8390857 L32.9033789,13.8390857 L32.9033789,12.2830857 L27.9635698,12.2830857 L27.9635698,13.8390857 Z M27.9635698,18.4539429 L32.9033789,18.4539429 L32.9033789,14.5899429 L27.9635698,14.5899429 L27.9635698,18.4539429 Z M27.9635698,20.7619429 L32.9033789,20.7619429 L32.9033789,19.2048 L27.9635698,19.2048 L27.9635698,20.7619429 Z M25.4681729,3.76308571 L27.8146251,3.76308571 L32.6043437,11.5310857 L27.8644643,11.5310857 L25.4681729,3.76308571 Z M22.267007,11.5310857 L22.267007,3.76308571 L24.6793387,3.76308571 L27.0767759,11.5310857 L22.267007,11.5310857 Z M22.267007,13.8390857 L27.2085347,13.8390857 L27.2085347,12.2830857 L22.267007,12.2830857 L22.267007,13.8390857 Z M22.267007,18.4539429 L27.2085347,18.4539429 L27.2085347,14.5899429 L22.267007,14.5899429 L22.267007,18.4539429 Z M22.267007,20.7619429 L27.2085347,20.7619429 L27.2085347,19.2048 L22.267007,19.2048 L22.267007,20.7619429 Z M21.5159819,11.5310857 L16.7079317,11.5310857 L19.1030774,3.76308571 L21.5159819,3.76308571 L21.5159819,11.5310857 Z M16.5733085,13.8390857 L21.5159819,13.8390857 L21.5159819,12.2830857 L16.5733085,12.2830857 L16.5733085,13.8390857 Z M16.5733085,18.4539429 L21.5159819,18.4539429 L21.5159819,14.5899429 L16.5733085,14.5899429 L16.5733085,18.4539429 Z M16.5733085,20.7619429 L21.5159819,20.7619429 L21.5159819,19.2048 L16.5733085,19.2048 L16.5733085,20.7619429 Z M11.1769266,11.5310857 L15.9689367,3.76308571 L18.3153889,3.76308571 L15.9185246,11.5310857 L11.1769266,11.5310857 Z M10.8796101,13.8390857 L15.8205648,13.8390857 L15.8205648,12.2830857 L10.8796101,12.2830857 L10.8796101,13.8390857 Z M10.8796101,18.4539429 L15.8205648,18.4539429 L15.8205648,14.5899429 L10.8796101,14.5899429 L10.8796101,18.4539429 Z M10.8796101,20.7619429 L15.8205648,20.7619429 L15.8205648,19.2048 L10.8796101,19.2048 L10.8796101,20.7619429 Z M5.52103719,11.5310857 C5.49124824,11.5310857 5.30163015,11.5253714 5.02035377,11.4853714 L12.4435296,3.76308571 L15.0844342,3.76308571 L10.2924241,11.5310857 L5.52103719,11.5310857 Z M6.60718794,13.8390857 L10.1257206,13.8390857 L10.1257206,12.2830857 L6.60718794,12.2830857 L6.60718794,13.8390857 Z M6.60718794,18.4539429 L10.1257206,18.4539429 L10.1257206,14.5899429 L6.60718794,14.5899429 L6.60718794,18.4539429 Z M6.60718794,20.7619429 L10.1257206,20.7619429 L10.1257206,19.2048 L6.60718794,19.2048 L6.60718794,20.7619429 Z M2.68077588,10.5510857 L4.78261508,8.7328 L6.62322814,8.7328 L4.16735879,11.2888 C3.71078593,11.1459429 3.19119799,10.9162286 2.68077588,10.5510857 L2.68077588,10.5510857 Z M1.1277407,8.7328 L3.63115779,8.7328 L2.09645427,10.0602286 C1.73898693,9.70937143 1.40615276,9.27337143 1.1277407,8.7328 L1.1277407,8.7328 Z M43.2464442,5.42365714 C43.0373487,5.42365714 42.8683538,5.59337143 42.8683538,5.80022857 L42.8683538,6.56251429 L37.2113186,6.56251429 L32.6467357,1.81908571 L32.6467357,0.829942857 C32.6467357,0.623657143 32.476595,0.455085714 32.2686452,0.455085714 C32.0601226,0.455085714 31.8922734,0.623657143 31.8922734,0.829942857 L31.8922734,1.58994286 L11.888997,1.58994286 L11.888997,0.829942857 C11.888997,0.623657143 11.7211477,0.455085714 11.513198,0.455085714 C11.3052482,0.455085714 11.1356804,0.623657143 11.1356804,0.829942857 L11.1356804,1.8168 L6.59286633,6.56251429 L0.913489447,6.56251429 L0.913489447,5.80022857 C0.913489447,5.59337143 0.745067337,5.42365714 0.536544724,5.42365714 C0.328594975,5.42365714 0.1596,5.59337143 0.1596,5.80022857 L0.1596,6.92937143 C0.1596,6.92937143 0.157881407,6.93394286 0.157881407,6.93737143 L0.157881407,8.42822857 L0.185378894,8.49622857 C1.68800201,12.2396571 5.48093668,12.2830857 5.51989146,12.2830857 L5.85501709,12.2830857 L5.85501709,20.7619429 L4.09575075,20.7619429 C3.88780101,20.7619429 3.71880603,20.9282286 3.71880603,21.1379429 C3.71880603,21.3459429 3.88780101,21.5122286 4.09575075,21.5122286 L39.683801,21.5122286 C39.8934693,21.5122286 40.0624643,21.3459429 40.0624643,21.1379429 C40.0624643,20.9282286 39.8934693,20.7619429 39.683801,20.7619429 L37.927399,20.7619429 L37.927399,12.2830857 L38.2642432,12.2830857 C38.3020523,12.2830857 42.0944141,12.2396571 43.5941729,8.49622857 L43.6222432,8.42822857 L43.6222432,6.93737143 L43.6222432,6.93622857 L43.6222432,5.80022857 C43.6222432,5.59337143 43.4532482,5.42365714 43.2464442,5.42365714 L43.2464442,5.42365714 Z" id="Fill-1" fill="#080200" mask="url(#mask-2)"></path>
                    </g>
                    <path d="M7.27749648,38.9406857 C7.40753668,39.0824 7.55991859,39.1692571 7.73177789,39.1972571 C7.90421005,39.2298286 8.04914472,39.2252571 8.16887337,39.1904 C8.32240101,39.1304 8.45129548,39.0298286 8.55097387,38.8869714 C8.65122513,38.7452571 8.70278291,38.5789714 8.70278291,38.3904 C8.70278291,38.3178286 8.67528543,38.2264 8.62200905,38.1138286 C8.56987839,38.0018286 8.48280302,37.8806857 8.36364724,37.7498286 L5.88658191,35.7578286 C6.20795879,35.3915429 6.49439095,35.0064 6.74186834,34.6035429 C6.99106432,34.1995429 7.17552663,33.7846857 7.29468241,33.3578286 C7.33077286,33.1795429 7.29754673,32.9526857 7.19786834,32.6726857 C7.09589849,32.3961143 6.90857186,32.2578286 6.63531558,32.2578286 L1.20055176,32.2578286 C0.997757789,32.2578286 0.840792965,32.3315429 0.727938693,32.4772571 C0.615084422,32.6281143 0.558370854,32.7664 0.558370854,32.8961143 C0.558370854,33.0401143 0.612220101,33.1795429 0.718772864,33.3235429 C0.824752764,33.4664 0.969114573,33.5355429 1.14612965,33.5355429 L5.38704422,33.5355429 C5.17393869,34.0355429 4.87375779,34.5264 4.48764724,35.0132571 C4.10210955,35.4978286 3.67188844,35.9606857 3.19583819,36.3995429 C2.72093367,36.8258286 2.22769749,37.2195429 1.71784824,37.5812571 C1.20685327,37.9429714 0.725074372,38.2406857 0.273657286,38.4784 C0.130441206,38.5498286 0.0445115578,38.6446857 0.0152954774,38.7629714 C-0.0150663317,38.8812571 0.000401005025,38.9886857 0.0588331658,39.0824 C0.106380905,39.1904 0.19059196,39.2675429 0.30860201,39.3132571 C0.427757789,39.3612571 0.564672362,39.3549714 0.718772864,39.2955429 C1.27731558,39.0955429 1.94241106,38.7652571 2.7140593,38.3098286 C3.48742613,37.8538286 4.23100402,37.3121143 4.94250151,36.6829714 L7.27749648,38.9406857 Z" id="Fill-4" fill="#080200"></path>
                    <path d="M10.1468593,31.6884571 C10.4321457,31.7478857 10.646397,31.8278857 10.7873216,31.9273143 C10.9311106,32.0278857 11.001,32.2576 11.001,32.6124571 L11.001,39.3678857 L11.3762261,39.3678857 C11.7193719,39.3678857 11.9966382,39.2250286 12.2051608,38.9404571 C12.4119648,38.6558857 12.5162261,38.2176 12.5162261,37.6261714 L12.5162261,31.5444571 C12.5162261,31.3078857 12.4388894,31.1016 12.2847889,30.9227429 C12.1306884,30.7467429 11.946799,30.6570286 11.731402,30.6570286 L10.021402,30.6570286 C9.85527136,30.6570286 9.70460804,30.6987429 9.56597487,30.7810286 C9.43077889,30.8650286 9.36203518,30.9833143 9.36203518,31.1370286 C9.36203518,31.2667429 9.42161307,31.3804571 9.53962312,31.4753143 C9.65877889,31.5701714 9.86214573,31.6404571 10.1468593,31.6884571" id="Fill-6" fill="#080200"></path>
                    <mask id="mask-4" fill="white">
                        <use xlink:href="#path-3"></use>
                    </mask>
                    <g id="Clip-9"></g>
                    <path d="M6.08324623,45.8024 L10.787608,45.8024 L10.787608,44.0424 L6.08324623,44.0424 L6.08324623,45.8024 Z M12.2850754,45.8201143 L12.1962814,45.8201143 C12.2306533,45.7144 12.2615879,45.5646857 12.2850754,45.3761143 C12.3074171,45.1864 12.320593,44.9664 12.320593,44.7184 L12.320593,40.9852571 C12.320593,40.7355429 12.2518492,40.5344 12.1149347,40.3806857 C11.9780201,40.2275429 11.7855377,40.1492571 11.5363417,40.1492571 L10.2697387,40.1492571 C10.1047538,40.1492571 9.95237186,40.1886857 9.81660302,40.2652571 C9.68026131,40.3435429 9.61266332,40.4629714 9.61266332,40.6292571 C9.61266332,40.7589714 9.66307538,40.8669714 9.76332663,40.9498286 C9.86300503,41.0321143 10.0274171,41.0978286 10.2536985,41.1446857 C10.3602513,41.1806857 10.4461809,41.2075429 10.5114874,41.2252571 C10.576794,41.2429714 10.6323618,41.2755429 10.6810553,41.3224 C10.7171457,41.3704 10.7429246,41.4298286 10.762402,41.5001143 C10.7784422,41.5726857 10.787608,41.6726857 10.787608,41.8035429 L10.787608,42.7812571 L6.08324623,42.7812571 L6.08324623,41.4641143 C6.08324623,41.2395429 6.01736683,41.0555429 5.88675377,40.9138286 C5.7561407,40.7721143 5.58428141,40.6995429 5.37060302,40.6995429 L4.05186935,40.6995429 C3.88573869,40.6995429 3.73908543,40.7344 3.61362814,40.7978286 C3.49046231,40.8635429 3.42687437,40.9675429 3.42687437,41.1092571 C3.42687437,41.2509714 3.46353769,41.3704 3.53457286,41.4641143 C3.6061809,41.5589714 3.74939698,41.6246857 3.96307538,41.6595429 C4.19966834,41.7195429 4.36007035,41.7886857 4.44313568,41.8646857 C4.52562814,41.9429714 4.5680201,42.1418286 4.5680201,42.4606857 L4.5680201,47.5446857 L4.96100503,47.5446857 C5.17411055,47.5446857 5.35227136,47.4932571 5.49491457,47.3938286 C5.63755779,47.2921143 5.73265327,47.1829714 5.78020101,47.0646857 L12.2128945,47.0646857 C12.3555377,47.0646857 12.4695377,46.9966857 12.5520302,46.8601143 C12.6350955,46.7241143 12.6774874,46.5904 12.6774874,46.4595429 C12.6774874,46.3178286 12.6391055,46.1761143 12.5623417,46.0321143 C12.4844322,45.8915429 12.392201,45.8201143 12.2850754,45.8201143 L12.2850754,45.8201143 Z" id="Fill-8" fill="#080200" mask="url(#mask-4)"></path>
                    <path d="M31.4916693,45.8201714 L25.5224231,45.8201714 C25.3683226,45.8201714 25.2720814,45.8024571 25.2365638,45.7664571 C25.2004734,45.7321714 25.1827146,45.6418857 25.1827146,45.5007429 L25.1827146,42.9230286 C25.1827146,42.6727429 25.1042322,42.4664571 24.9426844,42.3001714 C24.7822824,42.1350286 24.5955286,42.0510286 24.3812774,42.0510286 L22.8477196,42.0510286 C22.7062221,42.0510286 22.5578503,42.0870286 22.4031769,42.1596 C22.2485035,42.2298857 22.1711668,42.3367429 22.1711668,42.4773143 C22.1711668,42.6561714 22.2164231,42.7887429 22.3046442,42.8784571 C22.3940111,42.9664571 22.5807648,43.0464571 22.8660513,43.1178857 C23.1622221,43.1893143 23.3713176,43.2698857 23.4904734,43.3567429 C23.6084834,43.4487429 23.6686342,43.6573143 23.6686342,43.9898857 L23.6686342,45.5007429 C23.6560312,46.1407429 23.8112774,46.5670286 24.1315085,46.7801714 C24.4528854,46.9933143 24.9266442,47.1001714 25.5573678,47.1001714 L31.5094281,47.1001714 C31.6887347,47.1001714 31.8376794,47.0287429 31.9556894,46.8870286 C32.0748452,46.7453143 32.1332774,46.6024571 32.1332774,46.4596 C32.1332774,46.3058857 32.071408,46.1618857 31.9470965,46.0253143 C31.8216392,45.8881714 31.6698302,45.8201714 31.4916693,45.8201714" id="Fill-10" fill="#080200" mask="url(#mask-4)"></path>
                    <path d="M21.8324322,38.6035429 L25.4512161,38.6035429 L25.4512161,36.5041143 L21.8324322,36.5041143 L21.8324322,38.6035429 Z M27.1875678,39.6681143 C27.2895377,39.5264 27.3393769,39.3858286 27.3393769,39.2429714 C27.3393769,39.1246857 27.300995,38.9921143 27.2242312,38.8424 C27.1468945,38.6949714 27.0546633,38.6201143 26.9475377,38.6201143 L26.768804,38.6201143 C26.8037487,38.5378286 26.8530151,38.3869714 26.9120201,38.1675429 C26.971598,37.9475429 26.9996683,37.7144 26.9996683,37.4652571 L26.9996683,33.0212571 C26.9996683,32.7486857 26.9206131,32.5332571 26.7602111,32.3726857 C26.5992362,32.2121143 26.4119095,32.1315429 26.1993769,32.1315429 L25.0232864,32.1315429 C24.8325226,32.1315429 24.6812864,32.1704 24.5678593,32.2475429 C24.455005,32.3246857 24.3988643,32.4349714 24.3988643,32.5755429 C24.3988643,32.7298286 24.4315176,32.8469714 24.4962513,32.9252571 C24.5627035,33.0012571 24.6893065,33.0578286 24.8800704,33.0926857 C25.1538995,33.1629714 25.3160201,33.2429714 25.3704422,33.3338286 C25.4237186,33.4206857 25.4512161,33.6069714 25.4512161,33.8915429 L25.4512161,35.2429714 L21.8324322,35.2429714 L21.8324322,33.5355429 C21.8324322,33.3235429 21.7619698,33.1281143 21.6193266,32.9498286 C21.4766834,32.7721143 21.2985226,32.6841143 21.0848442,32.6841143 L19.9265126,32.6841143 C19.7466332,32.6841143 19.5971156,32.7286857 19.4716583,32.8166857 C19.3467739,32.9052571 19.2843317,33.0086857 19.2843317,33.1281143 L19.2843317,33.2698286 C19.2843317,33.3166857 19.3026633,33.3584 19.3381809,33.3938286 C19.3616683,33.4418286 19.4057789,33.4841143 19.4716583,33.5189714 C19.5375377,33.5532571 19.6354975,33.5846857 19.7666834,33.6069714 C20.0153065,33.6675429 20.1642513,33.7641143 20.211799,33.9018286 C20.258201,34.0378286 20.2828342,34.2652571 20.2828342,34.5846857 L20.2828342,40.3635429 L20.7640402,40.3635429 C20.9536583,40.3635429 21.1083317,40.3155429 21.2274874,40.2195429 C21.3449246,40.1258286 21.4342915,40.0132571 21.4955879,39.8824 L26.8581709,39.8824 C26.9778995,39.8824 27.0878894,39.8121143 27.1875678,39.6681143 L27.1875678,39.6681143 Z" id="Fill-11" fill="#080200" mask="url(#mask-4)"></path>
                    <path d="M34.5047638,35.8313143 L31.8140201,35.8313143 L31.8140201,31.5107429 C31.8140201,31.2976 31.7378291,31.0993143 31.5900302,30.9141714 C31.4422312,30.7307429 31.2600603,30.6381714 31.0469548,30.6381714 L29.3002915,30.6381714 C29.1215578,30.6381714 28.9674573,30.6793143 28.8356985,30.7633143 C28.706804,30.8467429 28.6409246,30.9650286 28.6409246,31.1193143 C28.6409246,31.2496 28.7010754,31.3627429 28.8190854,31.4576 C28.9376683,31.5524571 29.1404623,31.6170286 29.4257487,31.6536 C29.7104623,31.7233143 29.927005,31.8101714 30.0759497,31.9096 C30.2237487,32.0101714 30.2970754,32.2398857 30.2970754,32.5936 L30.2970754,42.8873143 L30.6906332,42.8873143 C31.0337789,42.8873143 31.3064623,42.7421714 31.5092563,42.4518857 C31.7120503,42.1616 31.8140201,41.7198857 31.8140201,41.1273143 L31.8140201,37.0747429 L34.5213769,37.0747429 C34.6519899,37.0747429 34.7734372,37.0141714 34.8868643,36.8958857 C34.9997186,36.7776 35.0564322,36.6301714 35.0564322,36.4530286 C35.0564322,36.2741714 34.9997186,36.1273143 34.8868643,36.0090286 C34.7734372,35.8896 34.6456884,35.8313143 34.5047638,35.8313143" id="Fill-12" fill="#080200" mask="url(#mask-4)"></path>
                    <path d="M54.7273327,35.8313143 L52.0371618,35.8313143 L52.0371618,31.5107429 C52.0371618,31.2976 51.9638352,31.0993143 51.8148905,30.9141714 C51.6659457,30.7307429 51.4849206,30.6381714 51.2706693,30.6381714 L49.524006,30.6381714 C49.3464181,30.6381714 49.1911719,30.6793143 49.0605588,30.7633143 C48.9288,30.8467429 48.8657849,30.9650286 48.8657849,31.1193143 C48.8657849,31.2496 48.9247899,31.3627429 49.0428,31.4576 C49.1608101,31.5524571 49.3641769,31.6170286 49.6488905,31.6536 C49.9341769,31.7233143 50.1507196,31.8101714 50.2990915,31.9096 C50.4474633,32.0101714 50.5219357,32.2398857 50.5219357,32.5936 L50.5219357,42.8873143 L50.9143477,42.8873143 C51.2597849,42.8873143 51.5324683,42.7421714 51.7341166,42.4518857 C51.9357648,42.1616 52.0371618,41.7198857 52.0371618,41.1273143 L52.0371618,37.0747429 L54.7468101,37.0747429 C54.8762774,37.0747429 54.9982975,37.0141714 55.1111518,36.8958857 C55.2245789,36.7776 55.2801467,36.6301714 55.2801467,36.4530286 C55.2801467,36.2741714 55.2245789,36.1273143 55.1111518,36.0090286 C54.9982975,35.8896 54.8699759,35.8313143 54.7273327,35.8313143" id="Fill-13" fill="#080200" mask="url(#mask-4)"></path>
                    <path d="M51.7158995,45.8201714 L45.7460804,45.8201714 C45.591407,45.8201714 45.4968844,45.8024571 45.4619397,45.7664571 C45.4264221,45.7321714 45.4069447,45.6418857 45.4069447,45.5007429 L45.4069447,42.9230286 C45.4069447,42.6727429 45.3273166,42.4664571 45.1663417,42.3001714 C45.0059397,42.1350286 44.8186131,42.0510286 44.6060804,42.0510286 L43.0736683,42.0510286 C42.9298794,42.0510286 42.7809347,42.0870286 42.627407,42.1596 C42.4733065,42.2298857 42.395397,42.3367429 42.395397,42.4773143 C42.395397,42.6561714 42.4406533,42.7887429 42.5300201,42.8784571 C42.6176683,42.9664571 42.8055678,43.0464571 43.0902814,43.1178857 C43.3881709,43.1893143 43.5949749,43.2698857 43.7141307,43.3567429 C43.8327136,43.4487429 43.8928643,43.6573143 43.8928643,43.9898857 L43.8928643,45.5007429 C43.8802613,46.1407429 44.0343618,46.5670286 44.3557387,46.7801714 C44.6771156,46.9933143 45.152593,47.1001714 45.7821709,47.1001714 L51.7342312,47.1001714 C51.912392,47.1001714 52.0607638,47.0287429 52.1787739,46.8870286 C52.2979296,46.7453143 52.3592261,46.6024571 52.3592261,46.4596 C52.3592261,46.3058857 52.2939196,46.1618857 52.1707538,46.0253143 C52.0464422,45.8881714 51.895206,45.8201714 51.7158995,45.8201714" id="Fill-14" fill="#080200" mask="url(#mask-4)"></path>
                    <path d="M44.6943588,38.3357714 L47.2069417,40.5043429 C47.3140673,40.6112 47.4326503,40.6797714 47.5632633,40.7094857 C47.695595,40.7386286 47.8296452,40.7420571 47.974007,40.7186286 C48.1286804,40.7072 48.2644492,40.6357714 48.3830322,40.5043429 C48.5016151,40.3746286 48.5795246,40.2317714 48.6144693,40.0780571 C48.6264995,39.9729143 48.6087407,39.8380571 48.5617658,39.6786286 C48.514791,39.5186286 48.4311528,39.3860571 48.3114241,39.2774857 L45.6928613,37.3769143 C46.0148111,37.0209143 46.2926503,36.6414857 46.5292432,36.2386286 C46.7675548,35.8357714 46.9577457,35.4152 47.0998161,34.9763429 C47.1490824,34.7866286 47.1261678,34.5557714 47.0379467,34.2832 C46.9502985,34.0112 46.762399,33.8746286 46.4771126,33.8746286 L40.7559166,33.8746286 C40.5416653,33.8746286 40.3841276,33.9483429 40.2833035,34.0969143 C40.1836251,34.2454857 40.1320673,34.3894857 40.1320673,34.5323429 C40.1320673,34.6752 40.1801879,34.8146286 40.2747106,34.9494857 C40.3709518,35.0866286 40.5124492,35.1540571 40.7020673,35.1540571 L45.1583789,35.1540571 C44.9796452,35.6403429 44.6914945,36.1237714 44.2939266,36.6026286 C43.8963588,37.0837714 43.4586905,37.5312 42.9843588,37.9449143 C42.5077357,38.3603429 42.0248111,38.7266286 41.531002,39.0466286 C41.0383387,39.3683429 40.6018161,39.6100571 40.222007,39.7774857 C40.0547307,39.8472 39.9487508,39.9517714 39.901203,40.0877714 C39.8530824,40.2243429 39.8530824,40.3512 39.901203,40.4694857 C39.9487508,40.5877714 40.0346804,40.6797714 40.1578462,40.7454857 C40.2833035,40.8100571 40.4414141,40.8077714 40.631605,40.7352 C41.2382683,40.5112 41.9033638,40.1963429 42.6274643,39.7946286 C43.3527106,39.3906286 44.0401477,38.9049143 44.6943588,38.3357714" id="Fill-15" fill="#080200" mask="url(#mask-4)"></path>
                    <path d="M42.8057397,32.7543429 C43.0073879,32.8137714 43.2754884,32.8434857 43.606604,32.8434857 L45.2467146,32.8434857 C45.3905035,32.8434857 45.5388754,32.7869143 45.6929759,32.6726286 C45.8470764,32.5623429 45.9238402,32.3983429 45.9238402,32.1852 C45.9238402,32.0320571 45.8573879,31.8892 45.7187548,31.7589143 C45.5835588,31.6292 45.4071166,31.5634857 45.1940111,31.5634857 C44.5512573,31.5634857 43.9738101,31.4966286 43.4559407,31.3594857 C42.9386442,31.2240571 42.4505638,31.0423429 41.985398,30.8154857 C41.8788452,30.7812 41.7539608,30.7663429 41.6118905,30.7732 C41.4698201,30.7777714 41.3506643,30.8349143 41.2544231,30.9417714 C41.1599005,31.0834857 41.1238101,31.2274857 41.1472975,31.3783429 C41.1719307,31.5246286 41.2544231,31.6537714 41.3982121,31.7589143 L42.2701116,32.5052 C42.4253578,32.6126286 42.6035186,32.6949143 42.8057397,32.7543429" id="Fill-16" fill="#080200" mask="url(#mask-4)"></path>
                    <path d="M62.4470231,37.7230857 C62.0196663,37.2790857 61.8054151,36.6950857 61.8054151,35.9722286 C61.8054151,35.2373714 62.0196663,34.6505143 62.4470231,34.2128 C62.8743799,33.7733714 63.4094352,33.5533714 64.0510432,33.5533714 C64.6794754,33.5533714 65.2116663,33.7802286 65.6453246,34.2310857 C66.0784101,34.6808 66.2978171,35.2608 66.2978171,35.9722286 C66.2978171,36.6950857 66.0784101,37.2790857 65.6453246,37.7230857 C65.2116663,38.1670857 64.6794754,38.3905143 64.0510432,38.3905143 C63.4094352,38.3905143 62.8743799,38.1670857 62.4470231,37.7230857 M67.8462693,35.3310857 C67.8101789,35.1179429 67.7580482,34.9116571 67.6864402,34.7099429 L71.1253447,34.7099429 L71.1253447,37.3402286 L67.649204,37.3402286 C67.7208121,37.1402286 67.7821085,36.9242286 67.8302291,36.6928 C67.8760583,36.4608 67.9012643,36.2219429 67.9012643,35.9722286 C67.9012643,35.7579429 67.8823598,35.5442286 67.8462693,35.3310857 M65.6287116,39.3493714 C66.1099176,39.1596571 66.5286814,38.8870857 66.8861487,38.5310857 C66.9205206,38.5682286 66.9589025,38.5905143 67.0012945,38.6036571 C67.0425407,38.6150857 67.0809226,38.6202286 67.1164402,38.6202286 L71.1253447,38.6202286 L71.1253447,42.6916571 L71.5360884,42.6916571 C71.8677769,42.6916571 72.141606,42.5499429 72.3552844,42.2642286 C72.5701085,41.9808 72.6772342,41.5368 72.6772342,40.9305143 L72.6772342,31.5110857 C72.6772342,31.2733714 72.5993246,31.0670857 72.4452241,30.8882286 C72.2916965,30.7110857 72.1055156,30.6202286 71.8929829,30.6202286 L70.1457467,30.6202286 C69.9801889,30.6202286 69.8289528,30.6619429 69.6914653,30.7465143 C69.5545508,30.8293714 69.4846613,30.9488 69.4846613,31.1013714 C69.4846613,31.2442286 69.5465307,31.3625143 69.6656864,31.4573714 C69.7842693,31.5522286 69.9801889,31.6168 70.2540181,31.6539429 C70.5375859,31.7116571 70.7541286,31.7922286 70.9030734,31.8916571 C71.0514452,31.9933714 71.1253447,32.2219429 71.1253447,32.5756571 L71.1253447,33.4305143 L67.2418975,33.4305143 C67.1937769,33.4305143 67.1450834,33.4385143 67.0981085,33.4562286 C67.0505608,33.4739429 67.0093146,33.4956571 66.9732241,33.5190857 C66.6283598,33.1396571 66.2061588,32.8413714 65.7083397,32.6213714 C65.2099477,32.4013714 64.6571337,32.2922286 64.0510432,32.2922286 C63.4821889,32.2922286 62.9568724,32.3870857 62.4819678,32.5756571 C62.0070633,32.7665143 61.6043397,33.0208 61.2709327,33.3402286 C60.9272141,33.6728 60.6619779,34.0636571 60.4775156,34.5133714 C60.2924804,34.9653714 60.2019678,35.4493714 60.2019678,35.9722286 C60.2019678,36.5042286 60.2964905,36.9933714 60.4861085,37.4373714 C60.6757266,37.8836571 60.9386714,38.2710857 61.2709327,38.6036571 C61.6140784,38.9350857 62.0225307,39.1905143 62.4922794,39.3682286 C62.9603095,39.5448 63.4821889,39.6282286 64.0510432,39.6168 C64.6204704,39.6282286 65.1457869,39.5402286 65.6287116,39.3493714" id="Fill-17" fill="#080200" mask="url(#mask-4)"></path>
                    <path d="M72.3205688,45.8201714 L66.3679357,45.8201714 C66.1995136,45.8201714 66.1015538,45.8024571 66.0654633,45.7664571 C66.0305186,45.7321714 66.0110412,45.6418857 66.0110412,45.5007429 L66.0110412,42.4773143 C66.0110412,42.2533143 65.9342774,42.0510286 65.7790312,41.8727429 C65.6249307,41.6950286 65.4421869,41.6070286 65.2267899,41.6070286 L63.6932322,41.6070286 C63.5397045,41.6070286 63.3878955,41.6493143 63.2406693,41.7321714 C63.0928704,41.8133143 63.0172523,41.9276 63.0172523,42.0693143 C63.0172523,42.2356 63.0642271,42.3590286 63.1598955,42.4418857 C63.254991,42.5253143 63.4451819,42.6024571 63.7287497,42.6727429 C64.014609,42.7556 64.2139658,42.8436 64.3268201,42.9304571 C64.4396744,43.0213143 64.4981065,43.2241714 64.4981065,43.5447429 L64.4981065,45.4818857 C64.4843578,46.1224571 64.6413226,46.5556 64.9701467,46.7801714 C65.2938151,47.0053143 65.7721568,47.1178857 66.4028804,47.1178857 L72.3377548,47.1178857 C72.5279457,47.1178857 72.6803276,47.0447429 72.7931819,46.8950286 C72.9048905,46.7476 72.961604,46.6024571 72.961604,46.4596 C72.961604,46.3293143 72.8985889,46.1893143 72.7731317,46.0424571 C72.649393,45.8938857 72.4975839,45.8201714 72.3205688,45.8201714" id="Fill-18" fill="#080200" mask="url(#mask-4)"></path>
                    <path d="M93.4555387,38.3904571 L89.9622121,38.3904571 C90.177609,37.6784571 90.3408754,36.8156 90.4543025,35.8024571 C90.5671568,34.7898857 90.6273075,33.7978857 90.6399106,32.8258857 C90.6399106,32.6481714 90.5826241,32.4464571 90.4640412,32.2218857 C90.3448854,31.9967429 90.1289156,31.8836 89.8207146,31.8836 L82.3700412,31.8836 C82.1947447,31.8836 82.0480915,31.9538857 81.9346643,32.0967429 C81.8206643,32.2396 81.7673879,32.3801714 81.7673879,32.5230286 C81.7673879,32.6658857 81.8189457,32.8098857 81.9272171,32.9596 C82.0343427,33.1070286 82.1752673,33.1796 82.3551467,33.1796 L89.0364633,33.1796 L89.0364633,34.5847429 C89.0364633,35.0356 89.0295889,35.4738857 89.0187045,35.9007429 C89.0066744,36.3270286 88.9803226,36.7487429 88.9396492,37.1630286 C88.8978302,37.5778857 88.8399709,37.9853143 88.7695085,38.3904571 L79.4850965,38.3904571 C79.3069357,38.3904571 79.1568452,38.4538857 79.0382623,38.5858857 C78.9191065,38.7150286 78.8612472,38.8516 78.8612472,38.9956 C78.8612472,39.1596 78.9191065,39.3087429 79.0382623,39.4384571 C79.1568452,39.5681714 79.3069357,39.6338857 79.4850965,39.6338857 L85.7390563,39.6338857 L85.7390563,47.1178857 L86.1664131,47.1178857 C86.4516995,47.1178857 86.7037598,46.9721714 86.9151467,46.6830286 C87.1311166,46.3916 87.2365236,45.9453143 87.2365236,45.3401714 L87.2365236,39.6338857 L93.4555387,39.6338857 C93.6440111,39.6338857 93.7981116,39.5681714 93.9121116,39.4384571 C94.0249658,39.3087429 94.0782422,39.1658857 94.0782422,39.0121714 C94.0782422,38.8813143 94.0289759,38.7453143 93.9178402,38.6036 C93.813006,38.4607429 93.6577598,38.3904571 93.4555387,38.3904571" id="Fill-19" fill="#080200" mask="url(#mask-4)"></path>
                    <path d="M100.991741,40.0154857 C101.117771,40.0703429 101.26156,40.0600571 101.428263,39.9897714 C102.094505,39.6932 102.819751,39.2217714 103.610876,38.5754857 C104.402002,37.9309143 105.111781,37.2343429 105.740213,36.4874857 L109.839057,39.5983429 C109.979982,39.7286286 110.125489,39.8057714 110.277298,39.8292 C110.425097,39.8549143 110.568314,39.8360571 110.713821,39.7777714 C110.830685,39.7286286 110.938384,39.6480571 111.031761,39.5366286 C111.128002,39.4252 111.192736,39.2777714 111.226535,39.1000571 C111.226535,39.0297714 111.212213,38.9194857 111.177268,38.7709143 C111.141751,38.6246286 111.031761,38.4897714 110.854746,38.3726286 L106.486655,35.4572 C106.702625,35.1360571 106.877922,34.8166286 107.023429,34.4966286 C107.164354,34.1760571 107.267469,33.8680571 107.326474,33.5714857 C107.374595,33.2400571 107.326474,32.9349143 107.18555,32.6560571 C107.040042,32.3783429 106.75762,32.2400571 106.328545,32.2400571 L104.812173,32.2400571 C104.636876,32.2400571 104.500535,32.2857714 104.410595,32.3806286 C104.324665,32.4754857 104.279409,32.5937714 104.279409,32.7377714 C104.26566,32.8314857 104.294876,32.9349143 104.369349,33.0469143 C104.440384,33.1594857 104.558967,33.2286286 104.723952,33.2532 C104.986324,33.2989143 105.175942,33.3537714 105.29567,33.4114857 C105.41368,33.4720571 105.456072,33.5714857 105.419982,33.7143429 C105.311138,34.1406286 105.101469,34.6126286 104.786967,35.1280571 C104.472464,35.6429143 104.098384,36.1492 103.671027,36.6480571 C103.24367,37.1572 102.78767,37.6314857 102.29959,38.0692 C101.813228,38.5086286 101.350927,38.8634857 100.910394,39.1360571 C100.766605,39.2183429 100.686404,39.3234857 100.660052,39.4474857 C100.637138,39.5714857 100.653178,39.6817714 100.714474,39.7777714 C100.771188,39.8829143 100.865138,39.9629143 100.991741,40.0154857" id="Fill-20" fill="#080200" mask="url(#mask-4)"></path>
                    <path d="M113.509685,44.7219429 C113.403133,44.5745143 113.249605,44.5008 113.046238,44.5008 L106.828369,44.5008 L106.828369,40.5870857 C106.828369,40.3390857 106.753896,40.1259429 106.60266,39.9476571 C106.454861,39.7699429 106.274982,39.6808 106.059012,39.6808 L104.51056,39.6808 C104.331826,39.6808 104.173716,39.7253714 104.03852,39.8156571 C103.901605,39.9025143 103.831143,40.0179429 103.831143,40.1608 C103.831143,40.3036571 103.879836,40.4248 103.97665,40.5242286 C104.070027,40.6259429 104.224128,40.6950857 104.440097,40.7299429 C104.723665,40.8002286 104.944791,40.8836571 105.098891,40.9785143 C105.252992,41.0733714 105.330329,41.3002286 105.330329,41.6539429 L105.330329,44.5008 L99.0763688,44.5008 C98.894198,44.5008 98.7469719,44.5710857 98.6283889,44.7139429 C98.5092332,44.8556571 98.4519467,44.9865143 98.4519467,45.1048 C98.4519467,45.2699429 98.5092332,45.4248 98.6283889,45.5670857 C98.7469719,45.7099429 98.894198,45.7802286 99.0763688,45.7802286 L113.046238,45.7802286 C113.236429,45.7802286 113.38652,45.7128 113.499374,45.5756571 C113.613374,45.4408 113.670087,45.2933714 113.670087,45.1402286 C113.670087,45.0110857 113.615092,44.8716571 113.509685,44.7219429" id="Fill-21" fill="#080200" mask="url(#mask-4)"></path>
                </g>
            </g>
        </g>
    </g>
</svg>